<svg id="Layer_1" data-name="Layer 1" xmlns="http://www.w3.org/2000/svg" viewBox="0 0 60 60"><defs><style>.cls-1{fill:#fff;}.cls-2{fill:#ffae00;}.cls-3{fill:#ec6c00;}.cls-4{fill:#ffefb4;}.cls-5{fill:#fed305;}.cls-6{opacity:0.1;}</style></defs><title>tools-icon</title><circle class="cls-1" cx="30" cy="30" r="30"/><g id="Page-1"><g id="Sketch-Flat-Logo"><g id="Group"><g id="Base"><polygon id="Polygon" class="cls-2" points="30 48.1 11.21 26.27 19.35 15.24 30 14.1 40.65 15.24 48.79 26.27 30 48.1"/></g><g id="Bottom-Back"><polygon id="Polygon-2" data-name="Polygon" class="cls-3" points="30 48.1 11.21 26.27 48.79 26.27 30 48.1"/></g><g id="Bottom-Mid"><polygon id="Polygon-3" data-name="Polygon" class="cls-2" points="30 48.1 18.82 26.27 41.18 26.27 30 48.1"/></g><g id="Top-Mid"><polygon id="Polygon-4" data-name="Polygon" class="cls-4" points="30 14.1 18.82 26.27 41.18 26.27 30 14.1"/></g><g id="Top-Side-Left"><polygon id="Polygon-5" data-name="Polygon" class="cls-2" points="19.35 15.24 15.17 20.79 11.21 26.27 18.89 26.27 19.35 15.24"/></g><g id="Top-Side-Right"><polygon id="Polygon-6" data-name="Polygon" class="cls-2" points="40.65 15.24 44.83 20.79 48.79 26.27 41.1 26.27 40.65 15.24"/></g><g id="Top-Left"><polygon id="Polygon-7" data-name="Polygon" class="cls-5" points="19.35 15.24 18.82 26.27 30 14.1 19.35 15.24"/></g><g id="Top-Right"><polygon id="Polygon-8" data-name="Polygon" class="cls-5" points="40.65 15.24 41.18 26.27 30 14.1 40.65 15.24"/></g></g></g></g><path class="cls-6" d="M30,1A29,29,0,1,1,1,30,29,29,0,0,1,30,1m0-1A30,30,0,1,0,60,30,30,30,0,0,0,30,0Z"/></svg>