<svg id="Layer_1" data-name="Layer 1" xmlns="http://www.w3.org/2000/svg" xmlns:xlink="http://www.w3.org/1999/xlink" viewBox="0 0 60 60"><defs><style>.cls-1{fill:#fff;}.cls-2{fill:url(#linear-gradient);}.cls-3{opacity:0.1;}</style><linearGradient id="linear-gradient" x1="-424.75" y1="326.92" x2="-424.75" y2="326.91" gradientTransform="matrix(1800.36, 0, 0, -2465.71, 764741.51, 806103.65)" gradientUnits="userSpaceOnUse"><stop offset="0" stop-color="#d378e5"/><stop offset="1" stop-color="#7526c2"/></linearGradient></defs><title>tools-icon</title><circle class="cls-1" cx="30" cy="30" r="30"/><path class="cls-2" d="M17.08,42.47V24.22A13.88,13.88,0,1,1,31.25,38.09h0a3.92,3.92,0,0,1-.06-7.84h0a6,6,0,1,0-6.27-6v20.2A3.92,3.92,0,0,1,21,48.35a3.86,3.86,0,0,1-2.25-.72,2.71,2.71,0,1,0-1.67-5.16Zm14.17-5.59a2.71,2.71,0,1,0-2.71-2.71A2.71,2.71,0,0,0,31.25,36.88Z"/><path class="cls-3" d="M30,1A29,29,0,1,1,1,30,29,29,0,0,1,30,1m0-1A30,30,0,1,0,60,30,30,30,0,0,0,30,0Z"/></svg>