<svg id="Layer_1" data-name="Layer 1" xmlns="http://www.w3.org/2000/svg" viewBox="0 0 60 60"><defs><style>.cls-1{fill:#261300;}.cls-2{fill:#ff7c00;}</style></defs><title>tools-icon</title><circle class="cls-1" cx="30" cy="30" r="29"/><path class="cls-2" d="M30,3A27,27,0,1,1,3,30,27,27,0,0,1,30,3m0-3A30,30,0,1,0,60,30,30,30,0,0,0,30,0Z"/><path class="cls-2" d="M22.47,33.92l-1.74,6.64c-.05.18-.11.22-.34.22H17.14c-.22,0-.26-.07-.22-.33l6.28-22a6.87,6.87,0,0,0,.23-1.84c0-.15.06-.22.17-.22h4.65c.15,0,.22,0,.26.22l7,23.87c0,.18,0,.29-.18.29H31.7c-.18,0-.29,0-.33-.2l-1.84-6.66Zm6.15-3.58C28,27.88,26.55,22.53,26,19.94h0c-.47,2.59-1.64,7-2.57,10.4Zm10-12.3a2.26,2.26,0,1,1,4.51,0,2.11,2.11,0,0,1-2.3,2.25A2.07,2.07,0,0,1,38.58,18Zm.27,5c0-.18.06-.27.26-.27h3.48c.17,0,.26.07.26.27V40.52c0,.17,0,.26-.26.26H39.16c-.23,0-.29-.11-.29-.29V23.06Z"/></svg>