<svg id="Layer_1" data-name="Layer 1" xmlns="http://www.w3.org/2000/svg" viewBox="0 0 60 60"><defs><style>.cls-1{fill:#001d26;}.cls-2{fill:#00c8ff;}</style></defs><title>tools-icon</title><circle class="cls-1" cx="30" cy="30" r="29"/><path class="cls-2" d="M30,3A27,27,0,1,1,3,30,27,27,0,0,1,30,3m0-3A30,30,0,1,0,60,30,30,30,0,0,0,30,0Z"/><path class="cls-2" d="M23.69,16.78c-2.12,0-4.16,0-5.53.11-.17,0-.47.11-.47.26v23c0,.19.09.26.26.26h3.28c.19,0,.25-.09.25-.26V32c.58,0,.86.05,1.68.05,4.84,0,8.78-2.34,8.78-7.78C31.94,20,29.63,16.78,23.69,16.78Zm-.45,11.79a16.05,16.05,0,0,1-1.73-.05V20.25c.38,0,1.2-.06,2-.06,2.85,0,4.55,1.37,4.55,4.09C28.11,27.69,25.75,28.57,23.24,28.57Z"/><path class="cls-2" d="M40.32,30c-2.27-1.17-2.66-1.71-2.66-2.48S38.24,26,39.93,26a7.22,7.22,0,0,1,3.73,1c.22.06.32,0,.32-.22V23.79a.48.48,0,0,0-.21-.43,9.89,9.89,0,0,0-3.84-.6c-3.75,0-5.91,2.29-5.91,5.06,0,2.46,1.26,3.94,4.31,5.4C40.49,34.33,41,35,41,35.79c0,1-.7,1.67-2.4,1.67a8,8,0,0,1-4.3-1.26c-.15-.11-.26-.05-.26.17v3.15c0,.17,0,.28.17.34a9.27,9.27,0,0,0,4.39.92c3.54,0,6.15-1.84,6.15-5.27C44.73,33.22,43.68,31.65,40.32,30Z"/></svg>