<svg id="Layer_1" data-name="Layer 1" xmlns="http://www.w3.org/2000/svg" viewBox="0 0 60 60"><defs><style>.cls-1{fill:#2e001f;}.cls-2{fill:#ffd9f2;}.cls-3{fill:#ff26be;}</style></defs><title>tools-icon</title><circle class="cls-1" cx="30" cy="30" r="29"/><path class="cls-2" d="M24.91,28.32l6.14,11.8c.11.17.05.35-.13.35H27.1a.43.43,0,0,1-.46-.28c-1.4-2.9-2.83-5.79-4.3-8.91h0c-1.32,2.94-2.77,6-4.17,8.93a.42.42,0,0,1-.4.24H14.12c-.22,0-.25-.17-.13-.3l6-11.46L14.18,17.11c-.13-.18,0-.31.13-.31h3.78c.22,0,.31.05.39.24,1.38,2.9,2.79,5.88,4.1,8.8h.05c1.27-2.89,2.67-5.9,4-8.77.1-.18.17-.29.39-.29h3.53c.18,0,.25.13.14.31Zm7.22,3.57c0-5.11,3.4-9.1,8.79-9.1a10.76,10.76,0,0,1,1.15,0V17a.22.22,0,0,1,.22-.22h3.46c.18,0,.22.07.22.18V37.12a15.66,15.66,0,0,0,.11,2.15c0,.13,0,.17-.17.24a13.08,13.08,0,0,1-5.62,1.27c-4.76,0-8.16-2.92-8.16-8.89Zm9.93-5.61a3.29,3.29,0,0,0-1.27-.22c-2.76,0-4.69,2.13-4.69,5.66,0,4,2,5.66,4.45,5.66a4.08,4.08,0,0,0,1.52-.24V26.28Z"/><path class="cls-3" d="M30,3A27,27,0,1,1,3,30,27,27,0,0,1,30,3m0-3A30,30,0,1,0,60,30,30,30,0,0,0,30,0Z"/></svg>