<svg id="Layer_1" data-name="Layer 1" xmlns="http://www.w3.org/2000/svg" viewBox="0 0 60 60"><defs><style>.cls-1{fill:#dc395f;}.cls-2{fill:#fff;}</style></defs><title>tools-icon</title><circle class="cls-1" cx="30" cy="30" r="30"/><path class="cls-2" d="M23.2,20.64a2.82,2.82,0,1,0-2.86-2.82,2.83,2.83,0,0,0,2.86,2.82M17.27,35.75A9.58,9.58,0,0,0,17,37.87C17,40.35,18.36,42,21.22,42c2.38,0,4.3-1.41,5.69-3.69l-.85,3.4h4.72L33.47,30.9c.68-2.73,2-4.15,4-4.15A2.35,2.35,0,0,1,40,29.31a5,5,0,0,1-.22,1.52l-1.38,5a7.45,7.45,0,0,0-.3,2.1c0,2.36,1.39,4.08,4.3,4.08,2.48,0,4.46-1.59,5.55-5.43l-1.85-.71c-.93,2.57-1.73,3-2.36,3s-1-.42-1-1.26a6,6,0,0,1,.21-1.31l1.35-4.84a10.5,10.5,0,0,0,.46-3.07c0-3.62-2.18-5.51-4.84-5.51-2.48,0-5,2.24-6.27,4.6l.93-4.23h-7.2l-1,3.73h3.37l-2.08,8.3C26,38.9,23,39,22.66,38.88c-.62-.14-1-.38-1-1.18a8.06,8.06,0,0,1,.3-1.93L25.1,23.25h-8l-1,3.73h3.32l-2.14,8.77"/></svg>