<?xml version="1.0" encoding="UTF-8"?>
<svg width="319px" height="36px" viewBox="0 0 319 36" version="1.1" xmlns="http://www.w3.org/2000/svg" xmlns:xlink="http://www.w3.org/1999/xlink">
    <!-- Generator: Sketch 64 (93537) - https://sketch.com -->
    <title>Logo / logotype-bookmark</title>
    <desc>Created with Sketch.</desc>
    <g id="Logo-/-logotype-bookmark" stroke="none" stroke-width="1" fill="none" fill-rule="evenodd">
        <path d="M58.319079,2.11386464e-12 C69.1395751,2.11386464e-12 77.3307918,7.68558601 77.3307918,17.9507913 C77.3307918,28.1636277 69.1395751,36 58.319079,36 C47.4985829,36 39.3073663,28.2141908 39.3073663,17.9507913 C39.3073663,7.63592586 47.4985829,2.11386464e-12 58.319079,2.11386464e-12 Z M98.1631361,-2.13162821e-14 C108.983632,-2.13162821e-14 117.174849,7.68558601 117.174849,17.9507913 C117.174849,28.1636277 108.983632,36 98.1631361,36 C87.34264,36 79.1514233,28.2141908 79.1514233,17.9507913 C79.1514233,7.63592586 87.34264,-2.13162821e-14 98.1631361,-2.13162821e-14 Z M22.1160141,0.252093 C29.9027263,0.252093 34.7567806,3.63981841 34.7567806,9.10153244 C34.7567806,12.8928595 32.4308796,15.8769833 28.6386496,16.8873417 C33.2398886,17.7478167 36.0208573,21.1870081 36.0208573,25.8370043 C36.0208573,31.9054752 30.8634245,35.647142 22.6722079,35.647142 L5.83470693,35.647142 L5.83461664,6.93020993 L1.687539e-14,6.12120087 L1.687539e-14,0.252273582 L22.1160141,0.252093 Z M129.51946,0.252454165 L129.51946,16.3315091 L144.233312,0.252454165 L153.486353,0.252454165 L140.188267,15.0177723 L154.396489,35.6475032 L144.789506,35.6475032 L134.62633,21.2361265 L129.51946,26.9000928 L129.51946,35.6475032 L121.530496,35.6475032 L121.530496,0.252454165 L129.51946,0.252454165 Z M173.966201,0.252273582 L184.280164,21.8941687 L194.545369,0.252273582 L203.444468,0.252273582 L203.444468,35.6473226 L196.265416,35.6473226 L196.265416,11.7824584 L186.860686,32.0573449 L181.65269,32.0573449 L172.247057,11.7824584 L172.247057,35.6473226 L165.016538,35.6473226 L165.016,6.822 L159.958697,6.12120087 L159.958697,0.252273582 L173.966201,0.252273582 Z M230.848928,0.252002709 L245.967284,35.6479547 L237.423932,35.6479547 L234.642061,28.7695719 L218.259627,28.7695719 L215.478659,35.6479547 L207.237782,35.6479547 L222.608051,0.252002709 L230.848928,0.252002709 Z M265.02956,0.252634747 C274.282601,0.252634747 279.54116,4.70308746 279.54116,12.5403627 C279.54116,18.0002709 277.215259,21.9450929 272.917399,23.9676156 L280.451295,35.6476838 L271.400507,35.6476838 L265.788006,25.5341677 L257.647353,25.5341677 L257.647353,35.6476838 L249.658388,35.6476838 L249.658388,0.252634747 L265.02956,0.252634747 Z M293.353003,0.252454165 L293.353003,16.3315091 L308.065953,0.252454165 L317.318994,0.252454165 L304.020005,15.0177723 L318.229129,35.6475032 L308.623049,35.6475032 L298.458067,21.2361265 L293.353003,26.9000928 L293.353003,35.6475032 L285.362233,35.6475032 L285.362233,0.252454165 L293.353003,0.252454165 Z M21.9894659,20.7311082 L13.8236713,20.7319405 L13.8236713,29.1245065 L21.7115096,29.1245065 C25.4531765,29.1245065 27.7790775,27.5561486 27.7790775,24.8266459 C27.7790775,22.3132778 25.5680179,20.7595233 21.9894659,20.7311082 Z M58.4202052,6.978606 C52.4537634,6.978606 47.4985829,11.7306313 47.4985829,17.9507913 C47.4985829,24.1691455 52.5043265,29.0241027 58.4202052,29.0241027 C64.3360839,29.0241027 69.1395751,24.1691455 69.1395751,17.9507913 C69.1395751,11.7306313 64.3360839,6.978606 58.4202052,6.978606 Z M98.2642622,6.978606 C92.2978205,6.978606 87.34264,11.7306313 87.34264,17.9507913 C87.34264,24.1691455 92.3483835,29.0241027 98.2642622,29.0241027 C104.180141,29.0241027 108.983632,24.1691455 108.983632,17.9507913 C108.983632,11.7306313 104.180141,6.978606 98.2642622,6.978606 Z M226.50231,8.59581149 L220.888907,22.3489654 L232.064247,22.3489654 L226.50231,8.59581149 Z M265.02956,6.87639638 L257.647353,6.87639638 L257.647353,18.8607459 L265.02956,18.8607459 C269.42945,18.8607459 271.9567,16.8382233 271.9567,12.7922751 C271.9567,8.84925886 269.42945,6.87639638 265.02956,6.87639638 Z M21.7115096,6.77563141 L13.8236713,6.77563141 L13.8236713,14.5117805 L21.7115096,14.5117805 C24.7452936,14.5117805 26.5655639,13.0445487 26.5655639,10.5687643 C26.5655639,8.14083419 24.7452936,6.72416543 21.7115096,6.77563141 Z" id="Combined-Shape" fill="#000000"></path>
    </g>
</svg>