<?xml version="1.0" encoding="UTF-8"?>
<svg width="234px" height="36px" viewBox="0 0 234 36" version="1.1" xmlns="http://www.w3.org/2000/svg" xmlns:xlink="http://www.w3.org/1999/xlink">
    <!-- Generator: Sketch 64 (93537) - https://sketch.com -->
    <title>Logo / logotype-meetup</title>
    <desc>Created with Sketch.</desc>
    <g id="Logo-/-logotype-meetup" stroke="none" stroke-width="1" fill="none" fill-rule="evenodd">
        <path d="M173.507451,-3.19744231e-14 L173.507451,20.723415 C173.507451,25.8701692 176.90831,28.9709523 181.691336,28.9709523 C186.388951,28.9709523 189.516495,25.9799227 189.626695,20.9971707 L189.629704,20.723415 L189.629704,-3.19744231e-14 L197.677191,-3.19744231e-14 L197.677191,20.723415 C197.677191,30.1439758 191.57565,36 181.691336,36 C171.919344,36 165.640224,30.276311 165.498778,21.0431862 L165.496337,20.723415 L165.496337,-3.19744231e-14 L173.507451,-3.19744231e-14 Z M14.8946704,2.48689958e-14 L25.2791109,21.7964132 L35.6180854,2.48689958e-14 L44.5748926,2.48689958e-14 L44.5748926,35.645365 L37.3457944,35.645365 L37.3457944,11.6120232 L27.8706744,32.0262693 L22.6329881,32.0262693 L13.1578681,11.6120232 L13.1578681,35.645365 L5.87421066,35.645365 L5.87421066,6.71987876 L1.42108547e-14,5.91058348 L1.42108547e-14,2.48689958e-14 L14.8946704,2.48689958e-14 Z M78.7016923,2.48689958e-14 L78.7016923,6.66531953 L59.6059611,6.66531953 L59.6059611,14.4127305 L76.7648396,14.4127305 L76.7648396,21.07805 L59.6059611,21.07805 L59.6059611,28.9709523 L79.2654711,28.9709523 L79.2654711,35.645365 L51.5584744,35.645365 L51.5584744,2.48689958e-14 L78.7016923,2.48689958e-14 Z M111.810053,2.48689958e-14 L111.810053,6.66531953 L92.7143218,6.66531953 L92.7143218,14.4127305 L109.8732,14.4127305 L109.8732,21.07805 L92.7143218,21.07805 L92.7143218,28.9709523 L112.364739,28.9709523 L112.364739,35.645365 L84.6668351,35.645365 L84.6668351,2.48689958e-14 L111.810053,2.48689958e-14 Z M144.954787,2.48689958e-14 L144.954787,6.81990402 L134.061127,6.81990402 L134.061127,35.645365 L126.01364,35.645365 L126.01364,6.81990402 L115.165446,6.81990402 L115.165446,2.48689958e-14 L144.954787,2.48689958e-14 Z M219.073503,3.55271368e-14 C228.139429,3.55271368e-14 233.331649,4.48295024 233.331649,12.3758525 C233.331649,20.563881 228.296639,25.3390946 219.416924,25.4586741 L219.073503,25.460975 L211.99899,25.460975 L211.99899,35.645365 L203.951503,35.645365 L203.951503,3.55271368e-14 L219.073503,3.55271368e-14 Z M218.664309,6.66531953 L211.99899,6.66531953 L211.99899,18.7410962 L218.664309,18.7410962 C223.147259,18.7410962 225.693357,16.604193 225.693357,12.6304622 C225.693357,8.73782804 223.250121,6.74742727 218.93635,6.66780768 L218.664309,6.66531953 Z" id="Combined-Shape" fill="#111111"></path>
    </g>
</svg>